<?xml version="1.0" encoding="iso-8859-1"?>
<!-- Uploaded to: SVG Repo, www.svgrepo.com, Generator: SVG Repo Mixer Tools -->
<svg fill="#000000" height="800px" width="800px" version="1.1" id="Layer_1" xmlns="http://www.w3.org/2000/svg" xmlns:xlink="http://www.w3.org/1999/xlink" 
	 viewBox="0 0 512 512" xml:space="preserve">
<g>
	<g>
		<path d="M358.359,0H153.641c-43.987,0-79.773,35.786-79.773,79.773v352.452c0,43.988,35.786,79.774,79.773,79.774h204.718
			c43.988,0,79.773-35.788,79.773-79.774V79.773C438.133,35.786,402.347,0,358.359,0z M407.702,432.226
			c0,27.208-22.135,49.344-49.343,49.344H153.641c-27.209,0-49.343-22.136-49.343-49.344V79.773
			c0-27.209,22.135-49.343,49.343-49.343h204.718c27.208,0,49.343,22.135,49.343,49.343V432.226z"/>
	</g>
</g>
<g>
	<g>
		<path d="M184.257,47.975c-34.469,0-62.511,28.042-62.511,62.51c0,34.47,28.042,62.513,62.511,62.513
			c34.47,0,62.513-28.044,62.512-62.513C246.769,76.017,218.726,47.975,184.257,47.975z M184.257,142.569
			c-17.69,0-32.081-14.393-32.081-32.083c0-17.689,14.391-32.08,32.081-32.08c17.691,0,32.082,14.39,32.082,32.08
			C216.339,128.177,201.947,142.569,184.257,142.569z"/>
	</g>
</g>
<g>
	<g>
		<path d="M184.257,193.489c-34.469,0-62.511,28.044-62.511,62.513c0,34.468,28.042,62.51,62.511,62.51
			c34.47,0,62.513-28.042,62.512-62.51C246.769,221.532,218.726,193.489,184.257,193.489z M184.257,288.082
			c-17.69,0-32.081-14.391-32.081-32.08c0-17.691,14.391-32.083,32.081-32.083c17.691,0,32.082,14.392,32.082,32.083
			C216.339,273.691,201.947,288.082,184.257,288.082z"/>
	</g>
</g>
<g>
	<g>
		<path d="M184.257,339.002c-34.469,0-62.511,28.042-62.511,62.511c0,34.469,28.042,62.511,62.511,62.511
			c34.47,0,62.512-28.042,62.512-62.511C246.769,367.044,218.726,339.002,184.257,339.002z M184.257,433.595
			c-17.69,0-32.081-14.391-32.081-32.081s14.391-32.081,32.081-32.081c17.691,0,32.082,14.391,32.082,32.081
			S201.947,433.595,184.257,433.595z"/>
	</g>
</g>
<g>
	<g>
		<path d="M327.742,47.975c-34.469,0-62.511,28.042-62.511,62.51c0,34.47,28.042,62.513,62.511,62.513
			c34.47,0,62.513-28.044,62.513-62.513C390.255,76.017,362.212,47.975,327.742,47.975z M327.742,142.569
			c-17.69,0-32.081-14.393-32.081-32.083c0-17.689,14.391-32.08,32.081-32.08c17.691,0,32.082,14.39,32.082,32.08
			C359.825,128.177,345.432,142.569,327.742,142.569z"/>
	</g>
</g>
<g>
	<g>
		<path d="M327.742,193.489c-34.469,0-62.511,28.044-62.511,62.513c0,34.468,28.042,62.51,62.511,62.51
			c34.47,0,62.513-28.042,62.513-62.51C390.255,221.532,362.212,193.489,327.742,193.489z M327.742,288.082
			c-17.69,0-32.081-14.391-32.081-32.08c0-17.691,14.391-32.083,32.081-32.083c17.691,0,32.082,14.392,32.082,32.083
			C359.825,273.691,345.432,288.082,327.742,288.082z"/>
	</g>
</g>
<g>
	<g>
		<path d="M327.742,339.002c-34.469,0-62.511,28.042-62.511,62.511c0,34.469,28.042,62.511,62.511,62.511
			c34.47,0,62.513-28.042,62.513-62.511C390.255,367.044,362.212,339.002,327.742,339.002z M327.742,433.595
			c-17.69,0-32.081-14.391-32.081-32.081s14.391-32.081,32.081-32.081c17.691,0,32.082,14.391,32.082,32.081
			S345.432,433.595,327.742,433.595z"/>
	</g>
</g>
</svg>