<?xml version="1.0" encoding="iso-8859-1"?>
<!-- Uploaded to: SVG Repo, www.svgrepo.com, Generator: SVG Repo Mixer Tools -->
<svg fill="#000000" height="800px" width="800px" version="1.1" id="Layer_1" xmlns="http://www.w3.org/2000/svg" xmlns:xlink="http://www.w3.org/1999/xlink" 
	 viewBox="0 0 512.002 512.002" xml:space="preserve">
<g>
	<g>
		<path d="M115.201,230.408h-89.6c-15.787,0-28.279,14.362-25.105,30.703c2.364,12.151,13.73,20.497,26.112,20.497h88.593
			c2.355,0,4.267-1.911,4.267-4.267v-42.667C119.468,232.32,117.556,230.408,115.201,230.408z"/>
	</g>
</g>
<g>
	<g>
		<path d="M511.506,250.906c-2.364-12.16-13.739-20.497-26.112-20.497h-88.593c-2.355,0-4.267,1.911-4.267,4.267v42.667
			c0,2.355,1.911,4.267,4.267,4.267h89.6C502.188,281.608,514.681,267.247,511.506,250.906z"/>
	</g>
</g>
<g>
	<g>
		<path d="M370.527,154.402c-3.029-1.408-6.579-0.913-9.096,1.229L256.001,244.83l-105.429-89.207
			c-2.534-2.142-6.076-2.637-9.097-1.229c-3.012,1.399-4.941,4.42-4.941,7.748v187.733c0,3.328,1.929,6.34,4.941,7.74
			s6.571,0.905,9.097-1.229l105.429-89.207l105.421,89.207c1.57,1.323,3.524,2.014,5.513,2.014c1.22,0,2.441-0.256,3.593-0.794
			c3.012-1.391,4.941-4.412,4.941-7.731V162.142C375.468,158.814,373.539,155.802,370.527,154.402z"/>
	</g>
</g>
</svg>