<?xml version="1.0" encoding="iso-8859-1"?>
<!-- Uploaded to: SVG Repo, www.svgrepo.com, Generator: SVG Repo Mixer Tools -->
<!DOCTYPE svg PUBLIC "-//W3C//DTD SVG 1.1//EN" "http://www.w3.org/Graphics/SVG/1.1/DTD/svg11.dtd">
<svg fill="#000000" version="1.1" id="Capa_1" xmlns="http://www.w3.org/2000/svg" xmlns:xlink="http://www.w3.org/1999/xlink" 
	 width="800px" height="800px" viewBox="0 0 587.91 587.91"
	 xml:space="preserve">
<g>
	<g>
		<g>
			<path d="M86.452,501.459c26.937,26.936,58.315,48.088,93.265,62.871c36.207,15.314,74.642,23.08,114.239,23.08
				s78.033-7.766,114.239-23.08c34.95-14.781,66.328-35.936,93.265-62.871c26.937-26.938,48.09-58.316,62.872-93.266
				c15.314-36.207,23.078-74.643,23.078-114.239c0-39.597-7.764-78.032-23.078-114.239c-14.782-34.95-35.936-66.328-62.872-93.265
				s-58.314-48.09-93.265-62.873C371.988,8.264,333.553,0.5,293.956,0.5c-39.597,0-78.032,7.765-114.239,23.079
				c-34.95,14.782-66.328,35.936-93.265,62.873c-26.937,26.937-48.09,58.315-62.872,93.265
				C8.266,215.922,0.501,254.357,0.501,293.955c0,39.596,7.765,78.032,23.079,114.239C38.362,443.143,59.515,474.521,86.452,501.459
				z M293.956,43.34c138.411,0,250.615,112.204,250.615,250.615S432.366,544.568,293.956,544.568S43.341,432.365,43.341,293.955
				S155.545,43.34,293.956,43.34z"/>
			<path d="M293.956,587.91c-39.663,0-78.164-7.778-114.434-23.119c-35.01-14.809-66.442-35.998-93.423-62.979
				c-26.983-26.983-48.172-58.416-62.979-93.425c-15.34-36.27-23.118-74.771-23.118-114.433c0-39.665,7.778-78.166,23.119-114.434
				c14.807-35.008,35.996-66.441,62.979-93.423c26.982-26.983,58.415-48.172,93.423-62.979C215.792,7.778,254.292,0,293.956,0
				c39.666,0,78.167,7.778,114.433,23.118c35.009,14.807,66.441,35.997,93.424,62.979c26.982,26.982,48.172,58.415,62.979,93.423
				c15.339,36.266,23.117,74.767,23.117,114.434c0,39.666-7.778,78.167-23.117,114.433c-14.808,35.009-35.997,66.441-62.979,93.425
				c-26.985,26.984-58.418,48.174-93.424,62.979C372.12,580.132,333.619,587.91,293.956,587.91z M293.956,1
				c-39.529,0-77.898,7.751-114.044,23.039c-34.89,14.757-66.215,35.874-93.106,62.766c-26.891,26.891-48.008,58.217-62.765,93.106
				c-15.288,36.144-23.04,74.514-23.04,114.044c0,39.528,7.751,77.898,23.039,114.044c14.757,34.889,35.875,66.215,62.766,93.106
				c26.89,26.889,58.215,48.006,93.106,62.764c36.146,15.289,74.515,23.041,114.044,23.041s77.899-7.752,114.044-23.041
				c34.887-14.754,66.212-35.871,93.105-62.764c26.891-26.892,48.009-58.218,62.765-93.106
				c15.288-36.144,23.039-74.513,23.039-114.044s-7.751-77.902-23.039-114.044c-14.756-34.889-35.873-66.215-62.765-93.106
				S442.889,38.796,408,24.039C371.856,8.751,333.487,1,293.956,1z M293.956,545.068c-67.075,0-130.136-26.12-177.565-73.55
				c-47.429-47.429-73.55-110.489-73.55-177.564c0-67.075,26.121-130.136,73.55-177.565s110.49-73.55,177.565-73.55
				c67.075,0,130.135,26.121,177.565,73.55s73.55,110.49,73.55,177.565c0,67.075-26.12,130.135-73.55,177.564
				C424.091,518.948,361.031,545.068,293.956,545.068z M293.956,43.84c-66.808,0-129.617,26.017-176.858,73.257
				c-47.24,47.241-73.257,110.05-73.257,176.858s26.017,129.617,73.257,176.857c47.241,47.24,110.05,73.257,176.858,73.257
				s129.618-26.017,176.858-73.257s73.257-110.049,73.257-176.857s-26.017-129.617-73.257-176.858
				C423.573,69.856,360.764,43.84,293.956,43.84z"/>
		</g>
		<g>
			<path d="M136.975,385.279c9.664,6.625,21.026,10.127,32.859,10.127h247.905c11.833,0,23.195-3.502,32.858-10.127
				c8.912-6.111,15.943-14.596,20.331-24.537s5.919-20.855,4.427-31.557c-1.617-11.604-6.688-22.359-14.662-31.102L336.74,162.198
				c-10.99-12.048-26.646-18.958-42.954-18.958c-16.308,0-31.963,6.91-42.954,18.958L126.88,298.084
				c-7.975,8.742-13.045,19.496-14.663,31.102c-1.492,10.701,0.039,21.613,4.427,31.557
				C121.033,370.684,128.062,379.17,136.975,385.279z M158.53,326.955l123.952-135.886c3.034-3.326,7.169-4.989,11.304-4.989
				s8.27,1.663,11.304,4.989l123.952,135.886c8.959,9.822,1.99,25.611-11.304,25.611H169.834
				C156.539,352.566,149.571,336.777,158.53,326.955z"/>
			<path d="M417.738,395.906H169.833c-11.934,0-23.394-3.532-33.142-10.215c-8.987-6.16-16.078-14.718-20.505-24.747
				c-4.426-10.028-5.969-21.034-4.464-31.828c1.631-11.704,6.745-22.552,14.788-31.369l123.952-135.886
				c11.085-12.152,26.876-19.122,43.324-19.122c16.448,0,32.238,6.97,43.323,19.122l123.952,135.886
				c8.043,8.817,13.157,19.664,14.788,31.369c1.505,10.794-0.039,21.8-4.465,31.828c-4.424,10.024-11.515,18.582-20.505,24.747
				C441.133,392.374,429.673,395.906,417.738,395.906z M293.786,143.739c-16.167,0-31.688,6.851-42.584,18.795L127.25,298.421
				c-7.907,8.668-12.934,19.33-14.537,30.834c-1.479,10.608,0.039,21.427,4.389,31.285c4.352,9.859,11.322,18.271,20.156,24.327
				c9.58,6.567,20.845,10.039,32.576,10.039h247.905c11.731,0,22.996-3.472,32.575-10.039c8.837-6.06,15.808-14.472,20.157-24.327
				c4.351-9.857,5.868-20.676,4.389-31.285c-1.604-11.505-6.63-22.167-14.536-30.834L336.371,162.535
				C325.475,150.59,309.953,143.739,293.786,143.739z M417.738,353.066H169.834c-6.351,0-11.89-3.609-14.455-9.42
				s-1.499-12.336,2.781-17.028l123.952-135.886c2.987-3.274,7.241-5.152,11.673-5.152c4.432,0,8.687,1.878,11.673,5.152
				l123.952,135.886c4.28,4.692,5.346,11.217,2.781,17.028C429.628,349.457,424.089,353.066,417.738,353.066z M293.786,186.58
				c-4.151,0-8.137,1.759-10.934,4.826L158.9,327.292c-4.01,4.396-5.008,10.508-2.605,15.95c2.402,5.443,7.59,8.824,13.54,8.824
				h247.904c5.949,0,11.137-3.381,13.539-8.824c2.402-5.442,1.404-11.555-2.604-15.95L304.721,191.406
				C301.923,188.339,297.938,186.58,293.786,186.58z"/>
		</g>
	</g>
</g>
</svg>