<?xml version="1.0" encoding="iso-8859-1"?>
<!-- Uploaded to: SVG Repo, www.svgrepo.com, Generator: SVG Repo Mixer Tools -->
<!DOCTYPE svg PUBLIC "-//W3C//DTD SVG 1.1//EN" "http://www.w3.org/Graphics/SVG/1.1/DTD/svg11.dtd">
<svg fill="#000000" version="1.1" id="Capa_1" xmlns="http://www.w3.org/2000/svg" xmlns:xlink="http://www.w3.org/1999/xlink" 
	 width="800px" height="800px" viewBox="0 0 603.249 603.249"
	 xml:space="preserve">
<g>
	<g>
		<path d="M505.059,195.879c53.866,0,97.69-43.823,97.69-97.689c0-53.866-43.824-97.689-97.69-97.689
			c-53.865,0-97.689,43.824-97.689,97.689v54.85h-211.49V98.19c0-53.866-43.823-97.689-97.689-97.689
			C44.323,0.5,0.5,44.324,0.5,98.19c0,53.866,43.823,97.689,97.689,97.689h54.85v211.49h-54.85
			c-53.866,0-97.689,43.822-97.689,97.689c0,53.866,43.823,97.689,97.689,97.689c53.867,0,97.689-43.823,97.689-97.689v-54.85
			h211.49v54.85c0,53.866,43.822,97.689,97.689,97.689c53.866,0,97.689-43.823,97.689-97.689c0-53.867-43.823-97.689-97.689-97.689
			h-54.85v-211.49H505.059z M450.209,98.19c0-30.244,24.605-54.85,54.85-54.85s54.85,24.605,54.85,54.85s-24.605,54.85-54.85,54.85
			h-54.85V98.19z M98.189,153.04c-30.244,0-54.85-24.605-54.85-54.85s24.605-54.85,54.85-54.85s54.85,24.605,54.85,54.85v54.85
			H98.189z M153.039,505.059c0,30.245-24.605,54.851-54.85,54.851s-54.85-24.605-54.85-54.851c0-30.243,24.605-54.849,54.85-54.849
			h54.85V505.059z M195.879,407.37v-211.49h211.49v211.49H195.879z M505.059,450.209c30.245,0,54.851,24.605,54.851,54.85
			s-24.605,54.85-54.851,54.85c-30.243,0-54.849-24.605-54.849-54.85v-54.85H505.059z"/>
		<path d="M505.059,603.249c-54.142,0-98.189-44.048-98.189-98.189v-54.35h-210.49v54.35c0,54.142-44.048,98.189-98.189,98.189
			C44.047,603.249,0,559.201,0,505.059s44.047-98.189,98.189-98.189h54.35v-210.49h-54.35C44.047,196.379,0,152.332,0,98.19
			C0,44.048,44.047,0,98.189,0c54.142,0,98.189,44.048,98.189,98.189v54.35h210.49V98.19C406.869,44.048,450.917,0,505.059,0
			c54.143,0,98.19,44.048,98.19,98.189c0,54.142-44.048,98.189-98.19,98.189h-54.35v210.49h54.35
			c54.142,0,98.189,44.048,98.189,98.189S559.2,603.249,505.059,603.249z M195.379,449.709h212.49v55.35
			c0,53.591,43.599,97.189,97.189,97.189s97.189-43.599,97.189-97.189s-43.599-97.189-97.189-97.189h-55.35v-212.49h55.35
			c53.591,0,97.19-43.599,97.19-97.189S558.649,1,505.059,1S407.869,44.6,407.869,98.19v55.35h-212.49V98.19
			C195.379,44.6,151.78,1,98.189,1S1,44.6,1,98.19s43.599,97.189,97.189,97.189h55.35v212.49h-55.35
			C44.599,407.87,1,451.468,1,505.059s43.599,97.189,97.189,97.189s97.189-43.599,97.189-97.189V449.709z M98.189,560.41
			c-30.52,0-55.35-24.83-55.35-55.351c0-30.52,24.83-55.349,55.35-55.349h55.35v55.349C153.539,535.58,128.709,560.41,98.189,560.41
			z M98.189,450.71c-29.968,0-54.35,24.381-54.35,54.349c0,29.969,24.381,54.351,54.35,54.351s54.35-24.382,54.35-54.351V450.71
			H98.189z M505.059,560.409c-30.52,0-55.349-24.83-55.349-55.35v-55.35h55.349c30.521,0,55.351,24.83,55.351,55.35
			S535.579,560.409,505.059,560.409z M450.71,450.709v54.35c0,29.969,24.381,54.35,54.349,54.35
			c29.969,0,54.351-24.381,54.351-54.35s-24.382-54.35-54.351-54.35H450.71z M407.869,407.87h-212.49v-212.49h212.49V407.87z
			 M196.379,406.87h210.49v-210.49h-210.49V406.87z M505.059,153.54h-55.35V98.19c0-30.52,24.83-55.35,55.35-55.35
			s55.35,24.83,55.35,55.35S535.578,153.54,505.059,153.54z M450.709,152.54h54.35c29.969,0,54.35-24.381,54.35-54.35
			s-24.381-54.35-54.35-54.35s-54.35,24.381-54.35,54.35V152.54z M153.539,153.54h-55.35c-30.52,0-55.35-24.83-55.35-55.35
			s24.83-55.35,55.35-55.35s55.35,24.83,55.35,55.35V153.54z M98.189,43.84c-29.968,0-54.35,24.381-54.35,54.35
			s24.381,54.35,54.35,54.35h54.35V98.19C152.539,68.222,128.158,43.84,98.189,43.84z"/>
	</g>
</g>
</svg>