<?xml version="1.0" encoding="iso-8859-1"?>
<!-- Uploaded to: SVG Repo, www.svgrepo.com, Generator: SVG Repo Mixer Tools -->
<!DOCTYPE svg PUBLIC "-//W3C//DTD SVG 1.1//EN" "http://www.w3.org/Graphics/SVG/1.1/DTD/svg11.dtd">
<svg fill="#000000" version="1.1" id="Capa_1" xmlns="http://www.w3.org/2000/svg" xmlns:xlink="http://www.w3.org/1999/xlink" 
	 width="800px" height="800px" viewBox="0 0 600.695 600.695"
	 xml:space="preserve">
<g>
	<g>
		<path d="M0.5,300.348c0,40.461,7.934,79.733,23.581,116.728c15.104,35.711,36.719,67.773,64.242,95.297
			s59.586,49.138,95.297,64.242c36.994,15.647,76.267,23.581,116.728,23.581c40.461,0,79.732-7.934,116.727-23.581
			c35.711-15.104,67.773-36.719,95.297-64.242s49.139-59.586,64.242-95.297c15.648-36.994,23.582-76.267,23.582-116.728
			c0-40.46-7.934-79.733-23.582-116.728c-15.104-35.71-36.719-67.773-64.242-95.297s-59.584-49.138-95.295-64.242
			C380.082,8.434,340.809,0.5,300.348,0.5s-79.733,7.934-116.728,23.581C147.91,39.186,115.847,60.8,88.324,88.323
			S39.186,147.91,24.081,183.62C8.434,220.615,0.5,259.887,0.5,300.348z M300.348,43.34c141.941,0,257.007,115.066,257.007,257.008
			c0,141.941-115.066,257.007-257.007,257.007c-141.942,0-257.008-115.066-257.008-257.008
			C43.34,158.406,158.406,43.34,300.348,43.34z"/>
		<path d="M300.348,600.695c-40.528,0-79.867-7.947-116.922-23.62c-35.771-15.13-67.886-36.78-95.456-64.35
			c-27.57-27.57-49.22-59.686-64.349-95.456C7.947,380.213,0,340.875,0,300.348c0-40.526,7.947-79.864,23.621-116.922
			c15.13-35.771,36.78-67.886,64.35-95.456c27.569-27.569,59.685-49.219,95.456-64.349C220.481,7.947,259.82,0,300.348,0
			c40.529,0,79.868,7.947,116.922,23.621c35.769,15.129,67.884,36.779,95.454,64.349s49.221,59.687,64.35,95.456
			c15.674,37.055,23.621,76.393,23.621,116.922s-7.947,79.867-23.621,116.922c-15.129,35.77-36.778,67.885-64.35,95.456
			c-27.569,27.569-59.686,49.22-95.456,64.35C380.213,592.748,340.875,600.695,300.348,600.695z M300.348,1
			c-40.394,0-79.601,7.92-116.533,23.542c-35.652,15.08-67.661,36.658-95.138,64.135c-27.478,27.478-49.056,59.487-64.136,95.138
			C8.92,220.749,1,259.956,1,300.348c0,40.393,7.92,79.6,23.542,116.533c15.079,35.65,36.657,67.659,64.135,95.138
			c27.478,27.478,59.487,49.056,95.138,64.135c36.932,15.621,76.139,23.542,116.533,23.542s79.6-7.921,116.532-23.542
			c35.65-15.079,67.66-36.657,95.138-64.135c27.479-27.479,49.058-59.488,64.135-95.138c15.622-36.932,23.543-76.139,23.543-116.533
			s-7.921-79.602-23.543-116.533c-15.077-35.65-36.655-67.659-64.135-95.138c-27.479-27.479-59.487-49.057-95.136-64.135
			C379.95,8.92,340.742,1,300.348,1z M300.348,557.855c-68.783,0-133.449-26.785-182.086-75.422
			C69.625,433.796,42.84,369.131,42.84,300.348s26.786-133.449,75.422-182.085S231.565,42.84,300.348,42.84
			c68.783,0,133.449,26.786,182.085,75.422s75.422,113.303,75.422,182.086s-26.785,133.448-75.422,182.085
			S369.131,557.855,300.348,557.855z M300.348,43.84c-68.516,0-132.931,26.681-181.379,75.129
			C70.521,167.417,43.84,231.832,43.84,300.348s26.682,132.931,75.129,181.378c48.448,48.448,112.863,75.13,181.379,75.13
			c68.515,0,132.93-26.682,181.378-75.129c48.447-48.447,75.129-112.862,75.129-181.378s-26.682-132.931-75.129-181.379
			C433.278,70.522,368.863,43.84,300.348,43.84z"/>
	</g>
	<g>
		<path d="M264.935,525.442c1.62,0.252,3.227,0.375,4.81,0.375c16.588,0,30.604-13.418,30.604-30.598V105.477
			c0-17.179-14.017-30.598-30.604-30.598c-1.584,0-3.189,0.123-4.81,0.375C155.926,92.267,72.518,186.566,72.518,300.348
			S155.927,508.43,264.935,525.442z M115.358,300.348c0-22.612,4.021-44.679,11.951-65.587
			c7.665-20.209,18.754-38.796,32.961-55.248c25.539-29.572,59.663-50.25,97.237-59.174v360.018
			c-37.573-8.924-71.698-29.602-97.236-59.174c-14.207-16.451-25.297-35.039-32.962-55.247
			C119.38,345.026,115.358,322.96,115.358,300.348z"/>
		<path d="M269.745,526.317c-1.618,0-3.262-0.128-4.887-0.381c-53.206-8.304-101.998-35.446-137.388-76.427
			c-35.758-41.407-55.452-94.381-55.452-149.162c0-54.782,19.693-107.755,55.452-149.162c35.39-40.98,84.182-68.122,137.388-76.426
			c1.623-0.252,3.267-0.381,4.887-0.381c17.15,0,31.104,13.95,31.104,31.098V495.22
			C300.848,512.367,286.895,526.317,269.745,526.317z M269.745,75.379c-1.569,0-3.161,0.124-4.733,0.369
			c-52.972,8.267-101.55,35.29-136.785,76.091c-35.602,41.226-55.208,93.967-55.208,148.508c0,54.542,19.607,107.283,55.209,148.509
			c35.235,40.802,83.813,67.825,136.785,76.092c1.574,0.245,3.167,0.369,4.733,0.369c16.599,0,30.104-13.502,30.104-30.098V105.477
			C299.848,88.881,286.344,75.379,269.745,75.379z M258.008,480.989l-0.616-0.146c-37.528-8.913-72.154-29.984-97.499-59.333
			c-14.245-16.495-25.365-35.134-33.051-55.396c-7.952-20.968-11.984-43.094-11.984-65.766c0-22.674,4.032-44.801,11.984-65.765
			c7.685-20.263,18.805-38.901,33.05-55.397c25.346-29.349,59.973-50.42,97.5-59.333l0.616-0.146V480.989z M257.008,120.973
			c-37.088,8.948-71.287,29.836-96.359,58.867c-14.169,16.407-25.229,34.945-32.873,55.098c-7.909,20.85-11.918,42.857-11.918,65.41
			c0,22.55,4.01,44.558,11.919,65.41c7.645,20.154,18.705,38.691,32.873,55.098c25.07,29.031,59.269,49.919,96.358,58.867V120.973z"
			/>
	</g>
</g>
</svg>